# xmcd
#
# Track frame offsets:
#	150
#	12717
#	33132
#	52950
#	70432
#	91576
#	109773
#	125659
#	142091
#	156143
#	175579
#	195816
#	216351
#	240218
#	249194
#
# Disc length: 3642 seconds
#
# Revision: 0
# Processed by: cddbd v1.4PL0 Copyright (c) Steve Scherf et al.
# Submitted via: EasyCDDAExtractor 4.6.9.1
#
DISCID=bf0e380f
DTITLE=Brian McKnight - Superhero
DYEAR=2001
DGENRE=R&B
TTITLE0=Prelude
TTITLE1=When You Wanna Come
TTITLE2=Whats it Gonna Be
TTITLE3=My Kind of Girl
TTITLE4=Love of My Life
TTITLE5=Whatever You Want
TTITLE6=Everything
TTITLE7=Get Over You
TTITLE8=Superhero
TTITLE9=Still
TTITLE10=Dont Know Where to Start
TTITLE11=Biggest Part of Me
TTITLE12=When Will I See You Again
TTITLE13=For You
TTITLE14=Groovin Tonight
EXTD=
EXTT0=
EXTT1=
EXTT2=
EXTT3=
EXTT4=
EXTT5=
EXTT6=
EXTT7=
EXTT8=
EXTT9=
EXTT10=
EXTT11=
EXTT12=
EXTT13=
EXTT14=
PLAYORDER=
